<?xml version="1.0" encoding="UTF-8" standalone="no"?>
<!-- Created with Inkscape (http://www.inkscape.org/) -->

<svg
   width="300mm"
   height="300mm"
   viewBox="0 0 300 300"
   version="1.1"
   id="svg5"
   xml:space="preserve"
   inkscape:version="1.2.1 (9c6d41e410, 2022-07-14)"
   sodipodi:docname="Sams_Icon_White_textInside.svg"
   xmlns:inkscape="http://www.inkscape.org/namespaces/inkscape"
   xmlns:sodipodi="http://sodipodi.sourceforge.net/DTD/sodipodi-0.dtd"
   xmlns:xlink="http://www.w3.org/1999/xlink"
   xmlns="http://www.w3.org/2000/svg"
   xmlns:svg="http://www.w3.org/2000/svg"><sodipodi:namedview
     id="namedview7"
     pagecolor="#ffffff"
     bordercolor="#000000"
     borderopacity="0.25"
     inkscape:showpageshadow="2"
     inkscape:pageopacity="0.0"
     inkscape:pagecheckerboard="0"
     inkscape:deskcolor="#d1d1d1"
     inkscape:document-units="mm"
     showgrid="false"
     inkscape:zoom="0.35355339"
     inkscape:cx="418.60721"
     inkscape:cy="729.73419"
     inkscape:window-width="1920"
     inkscape:window-height="1009"
     inkscape:window-x="1912"
     inkscape:window-y="-8"
     inkscape:window-maximized="1"
     inkscape:current-layer="svg5" /><defs
     id="defs2"><linearGradient
       inkscape:collect="always"
       id="linearGradient5306"><stop
         style="stop-color:#cecece;stop-opacity:0.26130652;"
         offset="0"
         id="stop5304" /><stop
         style="stop-color:#cecece;stop-opacity:1;"
         offset="1"
         id="stop5302" /></linearGradient><linearGradient
       inkscape:collect="always"
       id="linearGradient13416"><stop
         style="stop-color:#d9d9d9;stop-opacity:0;"
         offset="0"
         id="stop13414" /><stop
         style="stop-color:#cecece;stop-opacity:1;"
         offset="1"
         id="stop13412" /></linearGradient><linearGradient
       inkscape:collect="always"
       xlink:href="#linearGradient13416"
       id="linearGradient13418"
       x1="8.1516848"
       y1="106.662"
       x2="150.87207"
       y2="106.662"
       gradientUnits="userSpaceOnUse" /><linearGradient
       inkscape:collect="always"
       xlink:href="#linearGradient13416"
       id="linearGradient473"
       gradientUnits="userSpaceOnUse"
       x1="8.1516848"
       y1="106.662"
       x2="150.87207"
       y2="106.662" /><linearGradient
       inkscape:collect="always"
       xlink:href="#linearGradient5306"
       id="linearGradient5308"
       x1="8.1516848"
       y1="87.340363"
       x2="151.72813"
       y2="87.340363"
       gradientUnits="userSpaceOnUse" /></defs><rect
     style="display:none;opacity:1;fill:#000000;fill-opacity:1;stroke:none;stroke-width:0.291041"
     id="rect16923"
     width="333.90106"
     height="328.88544"
     x="-11.464416"
     y="-5.7322049"
     ry="0"
     rx="0"
     inkscape:label="backgr"
     sodipodi:insensitive="true" /><g
     id="g11934"
     transform="matrix(-1.8738531,0.12251749,0.12847841,2.220615,294.82715,-52.97823)"
     style="display:inline;stroke-width:0.4893"
     inkscape:label="S"><path
       id="path3252-2-7"
       style="display:inline;fill:#999999;fill-opacity:1;stroke-width:0.142407"
       d="m 79.654681,20.836132 4.421951,4.743276 C 94.51845,42.10737 78.868873,47.596278 80.131936,47.675614 99.173344,48.871636 112.62034,64.907822 117.65475,70.006803 L 34.896768,66.412935 13.253712,79.346362 c 5.587402,9.839716 14.953368,1.063722 34.592447,17.563545 0.376635,0.316428 1.032663,0.690004 1.921457,1.109877 l -21.448419,3.250346 c 0,0 -1.476281,10.31249 4.805807,23.94349 0.990821,1.36169 2.579067,2.9 4.52563,4.49938 9.31,7.64947 26.815376,16.69448 26.343828,14.47833 -2.460233,-2.23797 -7.302022,-5.92278 -11.457005,-10.16818 -1.622681,-1.65801 -3.140651,-3.40156 -4.371049,-5.17776 -1.030202,-1.48719 -1.826956,-2.91394 -2.385716,-4.51833 -1.461958,-4.19769 -1.294192,-9.61168 0.588506,-20.50771 0.06575,-0.38045 3.996863,-3.47228 4.911654,-5.136061 12.566882,5.247541 52.110778,15.741421 52.110778,15.741421 -7.923064,-10.60446 -4.151151,-8.26641 -38.664102,-33.48716 l 73.391362,1.814263 c 8.30959,4.880255 15.60852,9.088613 15.60852,9.088613 -0.7314,-6.23966 -5.38464,-22.941144 -23.81301,-39.777237 C 117.35365,40.587724 99.147243,28.062177 79.654681,20.836132 Z"
       inkscape:label="dark_back"
       sodipodi:insensitive="true" /><path
       id="path4572-4"
       style="display:inline;fill:#ffffff;fill-opacity:1;stroke-width:0.142407"
       d="m 79.529073,20.742469 c -0.159304,-0.0026 -0.248403,0.02702 -0.262303,0.0896 2.662036,-0.76232 51.16813,26.417598 64.80139,47.727271 3.3798,5.282863 8.73579,16.375586 2.56486,13.848147 C 107.0006,60.920698 103.03665,58.779858 80.406429,50.84096 33.488196,35.041128 0.68347712,55.292388 2.6272271,56.943983 c 3.8860934,8.625609 5.9137745,16.966178 7.1809642,19.215374 1.2562757,2.229833 1.4302307,4.025332 3.7319257,5.258695 1.133104,0.607177 3.862176,2.139938 3.082506,1.483466 -3.886131,-3.272096 0.238786,-5.435534 0.913084,-5.722145 8.88689,-3.777351 27.087875,-1.637753 45.607384,4.240039 0.07337,0.03434 0.110289,0.05356 0.192742,0.09201 0.557259,0.259889 21.701405,11.968297 35.38372,27.737948 1.114014,1.28395 3.529397,3.4985 2.381497,4.29651 -1.247417,0.86488 -11.585275,-5.75139 -11.585275,-5.75139 C 53.18971,90.719543 44.126636,92.029171 24.364958,98.443887 c -9.416531,2.793173 1.804887,17.991873 7.250702,24.660623 0.798172,1.21189 1.73931,2.66019 1.457036,2.02206 -0.859037,-1.942 -0.575825,-2.14391 -0.516554,-2.69559 0.158706,-1.4773 2.057885,-2.75966 2.208408,-2.86897 32.019513,-23.252892 56.254674,35.50611 69.98701,18.25612 2.3108,-2.90273 -3.74644,4.56183 8.36863,-10.97382 1.99343,-2.55625 -7.70642,-12.5694 -16.998586,-22.28273 -3.243052,-3.39005 -12.635002,-11.537696 -17.305836,-14.394678 -6.018976,-3.681607 -9.558613,-6.228865 -11.770749,-7.451669 27.341236,9.527965 52.714301,24.411987 59.442601,26.785547 4.56246,1.6095 10.16179,5.92532 21.65682,-10.289334 1.67332,-2.360354 6.40934,-7.373599 6.44361,-9.781946 C 155.06567,55.859023 84.467637,20.823822 79.529073,20.742434 Z"
       sodipodi:nodetypes="scscccsscccssccccssssssscsssss"
       inkscape:label="light"
       sodipodi:insensitive="true" /><g
       id="g13400"
       inkscape:label="shade"
       style="fill:url(#linearGradient13418);fill-opacity:1;stroke:none"><path
         style="display:inline;fill:url(#linearGradient473);fill-opacity:1;stroke:none;stroke-width:0.142407"
         d="m 101.40631,117.09329 c 2.52663,-0.0105 2.10803,-2.88022 2.40557,-2.19787 3.39032,7.7754 13.71985,6.89539 1.47445,19.9036 -3.06363,3.25449 -1.58285,3.2655 -5.21316,5.11884 -2.71881,1.09555 -4.565656,-0.0468 -6.560562,-1.51252 -2.787617,-1.92135 -2.142104,-1.85967 -11.172792,-9.09385 -12.19252,-10.66203 -17.750097,-12.88348 -24.650577,-15.02997 -4.975003,-1.15827 -10.397327,-0.7577 -17.143286,1.91496 -0.762366,0.30203 -1.231699,0.7558 -1.844724,0.94313 -3.178707,1.65027 -5.827968,4.30482 -5.947329,6.20896 -0.06646,1.05986 0.457566,1.86341 0.345143,1.89693 -0.155284,-0.0106 -1.269193,-1.86756 -1.802542,-2.51891 -1.130915,-1.47304 -1.161424,-1.38084 -1.556203,-2.02293 -1.448714,-1.76651 -1.860253,-2.44345 -3.439418,-4.71727 -0.0844,-0.26889 -0.188345,-2.71349 3.322003,-5.15141 1.815716,-1.26101 3.478891,-1.98489 4.410629,-2.48494 16.917668,-5.33403 28.165933,-2.8291 52.648288,11.65352 7.688902,3.98028 20.65617,9.77274 10.058642,-3.52871 -1.848533,-2.32019 1.410729,-0.16058 2.068714,0.29357"
         id="path4904-0"
         sodipodi:nodetypes="cssccccscsccccsccsc"
         inkscape:label="shade_bottom"
         sodipodi:insensitive="true" /><path
         style="display:inline;fill:url(#linearGradient5308);fill-opacity:1;stroke:none;stroke-width:0.142407"
         d="m 147.57051,86.156959 c 3.26996,1.729325 2.88143,-1.803876 3.02508,-0.975573 0.58887,3.395425 5.54319,3.158591 -11.24099,20.082884 -4.21461,4.24978 -6.07593,4.52673 -8.85433,4.22298 -7.60621,-2.99306 -14.77147,-6.18318 -21.96246,-10.03992 C 101.30735,96.307091 94.64679,92.540292 81.073533,86.784791 70.787926,82.980439 65.138359,80.545237 56.294312,78.080166 47.157153,75.656922 41.836211,74.912532 29.882927,74.301418 c -1.409908,-0.07208 -2.981514,0.173005 -4.17429,0.236389 -8.097849,0.430351 -11.022513,3.119921 -11.205816,5.412377 -0.06334,0.792089 0.07957,1.125531 1.126527,2.094846 0.552193,0.511243 0.954229,0.923118 1.09018,1.040487 -1.402184,-0.693767 -1.901187,-0.87188 -3.628629,-1.890994 -0.28418,-0.167649 -0.795414,-0.667844 -0.982749,-0.891095 -0.304184,-0.362512 -0.630144,-0.71859 -0.829477,-1.113756 C 11.0259,78.688553 10.912562,78.340797 10.599614,77.775779 10.515051,77.623085 10.384237,77.2814 10.180648,76.858609 9.9739486,76.42936 9.72868,75.924456 9.5944507,75.707253 9.4659656,75.499345 8.7755296,73.693556 8.1578692,71.836678 c -0.1045345,-0.31426 1.15052,-0.253677 1.1688976,-1.154884 0.056481,-2.769336 7.4687112,-4.881696 9.3251272,-5.213666 32.948796,-1.922653 53.630594,3.431377 96.816976,24.982138 0.28522,0.155695 26.42739,10.673634 23.06372,-8.18178 -0.3797,-2.128405 1.13227,-0.412477 2.27987,0.237573"
         id="path3446-0-2"
         sodipodi:nodetypes="cssccccsssscssssssssccsc"
         inkscape:label="shade_top" /></g></g><g
     inkscape:groupmode="layer"
     id="layer1"
     inkscape:label="TEXT"
     sodipodi:insensitive="true"><g
       id="g2096"
       inkscape:label="Sam's"
       sodipodi:insensitive="true"><text
         xml:space="preserve"
         style="font-weight:bold;font-size:68.689px;font-family:'Palatino Linotype';-inkscape-font-specification:'Palatino Linotype Bold';letter-spacing:-5.12168px;fill:#000000;stroke:#008000;stroke-width:0;stroke-dasharray:none"
         x="166.15147"
         y="148.31789"
         id="text1944"
         inkscape:label="'S"
         transform="matrix(0.99379276,-0.18250547,0.22980663,0.96404308,0,0)"
         sodipodi:insensitive="true"><tspan
           sodipodi:role="line"
           id="tspan1942"
           style="stroke-width:0"
           x="166.15147"
           y="148.31789">'S</tspan></text><g
         aria-label="M"
         transform="matrix(0.84604938,-0.38819359,0.41509895,0.99150388,0,0)"
         id="text1938"
         style="font-weight:bold;font-size:62.3139px;font-family:'Palatino Linotype';-inkscape-font-specification:'Palatino Linotype Bold';stroke:#008000;stroke-width:0"
         inkscape:label="M"
         sodipodi:insensitive="true"><path
           d="m 161.91395,174.92944 -0.30427,0.30427 c -2.18558,-0.44667 -5.19611,-0.62286 -9.76996,-1.00929 -4.3345,-0.3662 -7.19828,0.16516 -9.10502,0.28687 l -0.27384,-0.27384 v -2.06902 l 0.30427,-0.30427 c 2.06901,-0.12171 3.25565,-0.22313 3.55992,-0.30426 0.58825,-0.16228 0.93309,-0.53754 1.03451,-1.12579 0.2637,-1.46049 0.39555,-4.60458 0.39555,-9.43228 v -20.56846 l -6.78516,13.90501 c -0.38541,0.77081 -1.7039,3.61063 -3.95547,8.51948 l -4.15297,11.57498 -3.2434,0.16704 c -1.05479,-2.51527 -2.69516,-5.26113 -4.50047,-9.0949 l -4.25974,-9.03673 -7.9718,-16.58256 v 21.11614 c 0,4.8277 0.13185,7.97179 0.39555,9.43228 0.10142,0.58825 0.44625,0.96351 1.0345,1.12579 0.30427,0.0811 1.6169,0.14154 3.68591,0.26325 l 0.17829,0.34528 -0.0991,1.62372 -0.47569,0.53385 c -2.33271,-0.12171 -4.23984,-0.0904 -6.24801,-0.0904 -2.33271,0 -4.27595,0.21726 -6.75908,0.60424 l -0.0512,-0.89744 -0.2014,-1.33488 0.13801,-0.50485 c 2.06902,-0.12171 3.10801,-0.46161 3.41228,-0.54274 0.58825,-0.16228 0.93308,-0.53754 1.03451,-1.12579 0.26369,-1.46049 0.39554,-4.60458 0.39554,-9.43228 v -16.09573 c 0,-4.82771 -0.13185,-7.9718 -0.39554,-9.43228 -0.10143,-0.58825 -0.44626,-0.96352 -1.03451,-1.12579 -0.30427,-0.0811 -1.49091,-0.18256 -3.55993,-0.30427 l -0.30426,-0.30426 v -2.06902 l 0.19272,-0.0465 c 2.10959,0.12171 5.03725,-0.34788 8.26248,-0.34788 2.47471,0 4.48629,0.24231 6.33218,0.12055 0.66939,1.54162 1.62276,3.71206 2.86011,6.51131 l 1.94731,4.19889 9.67569,20.23376 4.65529,-9.43228 7.27198,-15.54805 c 0.85195,-1.84589 1.68361,-3.83376 2.49499,-5.96363 2.29215,0.12171 3.93086,-0.23109 4.72195,-0.23109 3.97576,0 7.04145,0.52762 9.15103,0.40586 l 0.26374,0.24201 -0.0248,2.07375 -0.2663,0.27274 c -2.06901,0.12171 -3.34838,0.10698 -3.65265,0.18812 -0.58825,0.16227 -0.93309,0.53754 -1.03451,1.12579 -0.2637,1.46048 -0.39555,4.60457 -0.39555,9.43228 v 16.09573 c 0,4.8277 0.13185,7.97179 0.39555,9.43228 0.10142,0.58825 0.44626,0.96351 1.03451,1.12579 0.30427,0.0811 1.62303,0.90497 3.69205,1.02668 l 0.30427,0.30427 z"
           id="path1995"
           sodipodi:nodetypes="ccsccccccsccccccccsccccccsccccccssccccccscccccccsccccccssccccc" /></g><g
         aria-label="A"
         transform="matrix(0.7868105,-0.53094433,0.56205913,0.89167327,0,0)"
         id="text1928"
         style="font-weight:bold;font-size:72.5359px;font-family:'Palatino Linotype';-inkscape-font-specification:'Palatino Linotype Bold';stroke:#008000;stroke-width:0"
         inkscape:label="A"
         sodipodi:insensitive="true"><path
           d="m 64.143079,188.49143 -0.737354,0.60212 c -5.241851,-0.14167 -8.159089,0.005 -9.245239,0.005 -4.344598,0 -8.498937,0.21365 -12.229624,0.35536 l -0.202065,-0.49703 V 186.726 l 0.354179,-0.3896 3.081359,-0.17709 c 1.298657,-0.0708 1.947986,-0.53127 1.947986,-1.3813 0,-0.49585 -0.330567,-1.60561 -0.991702,-3.32928 l -2.868851,-7.47318 c -3.258449,-0.0472 -6.587733,-0.0708 -9.987853,-0.0708 -1.841732,0 -4.580718,0.0236 -8.216957,0.0708 l -1.558389,4.32098 c -1.180597,3.28206 -1.770896,5.3363 -1.770896,6.16272 0,0.89725 0.554881,1.42852 1.664642,1.59381 0.613911,0.0945 1.81812,0.18889 3.612628,0.28334 l 0.354179,0.35418 -0.05166,2.06021 -0.321628,0.34845 c -4.36821,-0.14167 -7.158918,-2.4e-4 -8.410351,-2.4e-4 -0.96809,0 -3.364703,0.0708 -7.189838,0.21251 l -0.354179,-0.31876 v -2.30217 l 0.389597,-0.35418 c 2.432031,-0.14167 3.919583,-0.62572 4.462658,-1.45213 0.566687,-0.82642 2.656344,-5.74951 6.268971,-14.76928 l 9.244077,-23.1279 c 0.684747,-1.79451 1.782717,-4.26202 3.175821,-7.87465 l 5.44948,0.0493 18.292317,43.88082 c 0.73197,1.67645 1.393104,2.62092 1.983403,2.83343 0.779194,0.28334 1.900761,0.42501 3.364702,0.42501 l 0.318762,0.3896 z M 41.51629,169.90249 33.936855,151.3435 26.676182,169.90249 c 1.936179,0.0708 4.450851,0.10625 7.544016,0.10625 2.998717,0 5.430748,-0.0354 7.296092,-0.10625 z"
           id="path2082"
           sodipodi:nodetypes="ccscccccsccsccscccccscccccccccccccccccsc" /></g><g
         aria-label="S"
         transform="matrix(0.8768219,-0.72483525,0.756688,0.71130236,-12.361323,-2.8279474)"
         id="text1924"
         style="font-weight:bold;font-size:81.8335px;font-family:'Palatino Linotype';-inkscape-font-specification:'Palatino Linotype Bold';stroke:#008000;stroke-width:0"
         inkscape:label="S"><path
           d="m -23.424867,185.32932 c 0,4.39535 -1.25201,8.27126 -3.75603,11.62771 -2.184358,2.95687 -5.047998,5.15455 -8.59092,6.59303 -3.249898,1.33193 -7.125801,1.99789 -11.627709,1.99789 -5.594087,0 -11.081621,-1.27865 -16.4626,-3.83594 l -0.479493,-0.87907 c 0.745878,-3.06343 1.118817,-7.41883 1.118817,-13.06619 l 0.399578,-0.39958 h 2.557297 l 0.35962,0.39958 v 0.91902 c 0,1.49176 0.159831,3.46301 0.479493,5.91375 0.958987,1.70487 2.677171,3.16999 5.154552,4.39536 2.583935,1.27865 5.274425,1.91797 8.071468,1.91797 5.274425,0 8.923901,-1.83806 10.948428,-5.51417 1.038902,-1.89133 1.558353,-3.84926 1.558353,-5.87379 0,-3.40973 -1.42516,-5.84716 -4.275481,-7.31227 -1.411841,-0.71924 -3.689433,-1.31861 -6.832778,-1.7981 -7.112482,-1.09218 -11.78754,-2.46406 -14.025175,-4.11565 -3.383091,-2.50402 -5.074637,-6.37992 -5.074637,-11.62771 0,-5.46089 1.838057,-9.81629 5.514172,-13.06619 3.889223,-3.40973 9.29684,-5.1146 16.222853,-5.1146 6.233411,0 11.26809,0.99895 15.104035,2.99684 l 0.603616,1.80429 c -0.639324,3.16999 -1.349494,6.13398 -1.482687,10.58261 l -0.439535,0.39958 h -2.517339 l -0.399578,-0.39958 c -0.07991,-3.19662 -0.213108,-5.27442 -0.399578,-6.23341 -0.825793,-1.25201 -2.264273,-2.31755 -4.315438,-3.19662 -2.184358,-0.90571 -4.461951,-1.35856 -6.832778,-1.35856 -3.569561,0 -6.393243,0.94567 -8.471046,2.837 -1.944611,1.78478 -2.916917,4.08901 -2.916917,6.91269 0,3.06343 1.105498,5.31439 3.316494,6.75286 1.438479,0.93235 4.834889,1.82474 10.18923,2.67717 0.559409,0.0799 2.117762,0.34631 4.675059,0.79916 1.571672,0.26639 3.023471,0.65265 4.355396,1.15878 2.69049,1.01226 4.715017,2.55729 6.073581,4.6351 1.465118,2.26427 2.197677,5.08795 2.197677,8.47104 z"
           id="path2085"
           sodipodi:nodetypes="sccsccccccsccscscccscsccccccccscscccccs"
           style="stroke-width:0" /></g></g></g></svg>
